<mxfile host="app.diagrams.net" modified="2023-04-22T03:20:11.341Z" agent="Mozilla/5.0 (Windows NT 10.0; Win64; x64) AppleWebKit/537.36 (KHTML, like Gecko) Chrome/112.0.0.0 Safari/537.36" etag="3L2hozjdhk70p8IibR1V" version="21.2.1" type="device">
  <diagram name="Page-1" id="vDrH8KjNKwwqSu3tqdGT">
    <mxGraphModel dx="2625" dy="2348" grid="1" gridSize="10" guides="1" tooltips="1" connect="1" arrows="1" fold="1" page="1" pageScale="1" pageWidth="850" pageHeight="1100" math="0" shadow="0">
      <root>
        <mxCell id="0" />
        <mxCell id="1" parent="0" />
        <mxCell id="Cdtj5ABlr2NyAngbiMP4-13" style="edgeStyle=orthogonalEdgeStyle;rounded=0;orthogonalLoop=1;jettySize=auto;html=1;" edge="1" parent="1" source="Cdtj5ABlr2NyAngbiMP4-1" target="Cdtj5ABlr2NyAngbiMP4-12">
          <mxGeometry relative="1" as="geometry" />
        </mxCell>
        <mxCell id="Cdtj5ABlr2NyAngbiMP4-1" value="" style="shape=image;html=1;verticalAlign=top;verticalLabelPosition=bottom;labelBackgroundColor=#ffffff;imageAspect=0;aspect=fixed;image=https://cdn4.iconfinder.com/data/icons/scripting-and-programming-languages/512/660277-Python_logo-128.png" vertex="1" parent="1">
          <mxGeometry x="170" y="120" width="128" height="128" as="geometry" />
        </mxCell>
        <mxCell id="Cdtj5ABlr2NyAngbiMP4-2" value="SDK&lt;br&gt;Boto3" style="rounded=1;whiteSpace=wrap;html=1;" vertex="1" parent="1">
          <mxGeometry x="168" y="120" width="130" height="40" as="geometry" />
        </mxCell>
        <mxCell id="Cdtj5ABlr2NyAngbiMP4-3" value="Stock Market App Simulation" style="rounded=1;whiteSpace=wrap;html=1;" vertex="1" parent="1">
          <mxGeometry x="168" y="220" width="130" height="40" as="geometry" />
        </mxCell>
        <mxCell id="Cdtj5ABlr2NyAngbiMP4-6" style="edgeStyle=orthogonalEdgeStyle;rounded=0;orthogonalLoop=1;jettySize=auto;html=1;entryX=0.5;entryY=1;entryDx=0;entryDy=0;" edge="1" parent="1" source="Cdtj5ABlr2NyAngbiMP4-4" target="Cdtj5ABlr2NyAngbiMP4-3">
          <mxGeometry relative="1" as="geometry" />
        </mxCell>
        <mxCell id="Cdtj5ABlr2NyAngbiMP4-4" value="" style="shape=image;html=1;verticalAlign=top;verticalLabelPosition=bottom;labelBackgroundColor=#ffffff;imageAspect=0;aspect=fixed;image=https://cdn1.iconfinder.com/data/icons/bootstrap-vol-3/16/filetype-csv-128.png" vertex="1" parent="1">
          <mxGeometry x="168" y="380" width="128" height="128" as="geometry" />
        </mxCell>
        <mxCell id="Cdtj5ABlr2NyAngbiMP4-5" value="" style="image;aspect=fixed;perimeter=ellipsePerimeter;html=1;align=center;shadow=0;dashed=0;spacingTop=3;image=img/lib/active_directory/database_server.svg;" vertex="1" parent="1">
          <mxGeometry x="270" y="440" width="72.16" height="88" as="geometry" />
        </mxCell>
        <mxCell id="Cdtj5ABlr2NyAngbiMP4-7" value="Dataset" style="rounded=1;whiteSpace=wrap;html=1;" vertex="1" parent="1">
          <mxGeometry x="200" y="550" width="100" height="30" as="geometry" />
        </mxCell>
        <mxCell id="Cdtj5ABlr2NyAngbiMP4-16" style="edgeStyle=orthogonalEdgeStyle;rounded=0;orthogonalLoop=1;jettySize=auto;html=1;entryX=0;entryY=0.5;entryDx=0;entryDy=0;" edge="1" parent="1" source="Cdtj5ABlr2NyAngbiMP4-8" target="Cdtj5ABlr2NyAngbiMP4-15">
          <mxGeometry relative="1" as="geometry" />
        </mxCell>
        <mxCell id="Cdtj5ABlr2NyAngbiMP4-8" value="" style="shape=image;verticalLabelPosition=bottom;labelBackgroundColor=default;verticalAlign=top;aspect=fixed;imageAspect=0;image=data:image/png,iVBORw0KGgoAAAANSUhEUgAAAMEAAABPCAYAAABS+KE0AAAgAElEQVR4nO2deXAc93XnP909JwbH4AYGIE4CBEjwAGGRIkWKt0TZukXRlh3LshMfldrdZHPuZp3NXqkkla3ErsRJKuXYcuwcpixRtiSS4iGSoniT4oUbEA4CGNzAAJh7prv3j55uzgAkdQ0kej3fKnA4Mz3dv1/3e793v5+gqqpKCin8CkP8tAeQQgqfNlJMkMKvPFJMkMKvPFJMkMKvPD4VJkjZ4incSzB9EhdRFMX4vyAICIKAoiioqmq8FwThkxhKCikswKIygaqqoKoIAPOIfD7RK4qCKIiQ4oUUPmEsuiRQVZVgMMjU9DRTU1ME/H5kWcZkMuFITycnJ4e8vDwkUUJFU5NSUiGFTxKLwgS6zq+qKl6fj67OTi5dvMSVK1cYGhwkHA7hcDgoKy+nce1aNmzciMvlwmq1IklSiglS+EQhJDtirOv5AHNzc/zLj3/C66+9xsDAANFoFFmWNRVJEDBJEharlSKXi29+65s8sGkT2dnZAIhiynGVwieDpDOBoigIgsDN/pv84tVXOfDGGwy53YTDYVBVZFlGQGMWyWRCFARESaKsvJwvf+V5HtyyBVexC1VVEaUUI6Sw+EiqOqQqCgIwMTHBpYsXOfDGGwwMDBCORBAAi8WC0+nE4XDg8XgIBoPIsowcidDV2cnP9+8nIz2D3IdysVqsCVIlhRQWC8llAlVFEEXe6+7mnVOn6HmvR1vNVZXc/Hxqa2qoWVZLZkYmY+PjdHV20tvTw8zMDKIocvXKVZbV1VG3vJ6lS5cartUUI6SwmEgqEwiiiKIotLe1c/nSJVRUFEXBZrOxfv16Pv/cc9y/4X4AwuEwJ4+f4KV9+3jn1CkEQUCORulo7+Da1assXbo0JQlS+ESQFCZQVVXT4UWR6akpBgcHGBsbQxBFVEVhzZo17H7kEZo+02QEycxmM1u3bwMBWlpamBgfR1EU3G43/X19gGYcp5gghcVG0i3P2bk5fF6fYSADLKuvp6y8DJPJZDCLoihIkkR+fgH19fWYTBo/+nw+ZmZmiEQiQCrFIoXFR9LUIZ1YZVm+pcvHvrPbbVgsloTjFEVBFEUkk4TNbjMYRlEUzY2KZgvciQl06RMP/Rwp6ZHCh0HSJIFOeHabDavVaqz2AMPuYaanpxccH41GmZ2ZYWR4BDl2rNViwW6zI4ribRlAJ/75f/p38a8ppPBBkFR1SFVVspxOsnNysNlsBhNcvXqV5hvNeDweVFU1Vvux0VFaW1poa2uLxQ8EnNnZ5BfkI0lSQuKdfn5VUUBViUajBAIB5mbnmJ2Zxev1Eg6FDEl0O0mRQgq3Q1LUIT0LVJZlHA4H5RXllJeX097ejiRJDA4MsP/ll/H7fDz6+GNkZGQyNDTE66/9gkMHDhIJhzGbzciyTHlFObXLli24hmF8SxLRaJT+vj7a29oZGhokHA6Tm5dHTU0N1dVLyc3LBUi5WFP4QEh67pAgCKxatYpND26mtbXVMIT7+/vZ99OfcuzYMdLS0vB5vYyNjeHxeDCZTMiyjDPLSWNjI6vXrAFueYf0FT0UCnH9+nXePHiQttY2pqemCIVCKDFvk91uo6ysnE2bN/P4k09gt9uN36YYIYU7IalMoOvxxS4XGx/YRHdnN6dPv0M4HCYYDDI8PMzQ0BAmkylhlRZiqRM7H9rJ+vvvx+l0Gt4lnYj1KPTrv3iN69evMT01TTQaTSByVVVxD7kZHxtjfHycJ556kpKSEiRJSsUcUrgjkhssEwRQIc2eRv3yevZ+4fOoqLS2tODxeIhGowBEo1GD+M1mM7l5eTSsbOCxJ56gtrYW4nR5VVXxeb0037jBz/a9xLmzZ4lEIgkJdvq5VFXF6/XS2trK0NAQmVmZ7Ny1i5KSkhQTpHBHJF8dEjVidDqdbHpwM86cbPa//DLXrlxlZGQEj8ejuUYlifSMDEpLS2lqauJLz3+Z4uJizGYzKiAKAnLMjdrX18eJ48c59fbbGsGLIhaLhbS0NBwOByazmWAgwMzMDMFgEFVVmZycZP/PXiYnJ4eC/HzMFsuHZwSdF39ZeEdVFxQvGZ/D7b9LYXHqCXRCM0kSjY2NrFy5krbWVn7x6qv827/+G9FolNy8PJ56+ikef+JJyivKtUBaLAFPiKlVuk1w5d13OXXybUBTuWRZpqqqiocefpjtO3dgs9tpbWnh1Vf2c+b0acLhMJIk0dHRwdUrV1ixYgVV1dVGbOL9GEH3LsXP515M7Z7vIiaWuxUvGZWYNw0w1M4UErFolWX6DVcUBbPZTPXSpTSsWoX1lf0oPh95ublUVlZRuqTUsCWEOENYZ4KRkRF6enq0NIxYbXL98uXs2buXnQ/twul0IooiTqeTrKwscnJyeOXllwGNSHp6eujs7KR66dIPNG79uve6e1W3meaPNf7+3avMe69hUcsr4w1bs9mM1WrVPgMkScJqs2KxWJBleUFFmf67sdFRpiYniUQiBhPct24dTZ9porCw0FjdMzMzWblyJcPDw5w6dYrJiQlUVWV8bIyR4WFjPHeDGos/TE1O4pmZQY5GjTJQl8t1z9gUOgMoisLk5CQDN28yMT7OzOwsVVXVVFVXkZmZidfrZXR0FFmWEQUBe1oaLpcLk8l0z8zlXsDiFtorqrESybJMNHLLmyMrCoqS2G3idqvv7OwcgUDw1jlVlaqqKvLy8433+mt6RgbFxcXk5+czOT6Oqqr4fX58Pp/x+zs9fP08gUCASxcv0traht/vw26zU15ZwbN7994ThKOP0+/309rSyrWrV+ns6GB0bJRZzyw7H9pJZmYGVquVnp4ejh87htfrRRBESktLeebZPWRkZBjnuxfm9Glj0ZjAiAwrMl6vl6mpKcbHx1Fi5ZWBYIDx8TGG3W7SHA4yMjI0eyAmKXSIt2nHkpCfNE96aJ/HnUEQ0C3buz3weOI6e+Ysbx07xuTkJOnp6axbv549zz77qXuY4vX/zs5O/vnFFzn9zjv4vF4UVUUSJZavWI7P7ycYCPJeVzf7X9nP+NgYqqqyprGR3Z99BIfDgZSyDQwknQniV3MVlaHBQY4cPsLZM2fo6OjA7/ejqir9vX386Ac/5OL5Czyw6QF2f/azOJ1OABRZNlQmV4kLp9OZYCh3d3WxprGRgoICQ4UxmUwEg0HGRsfo6elBiRFseozB1Fhp5/sV8ouCgM1uN8YhSRJ2uy3Zt+kjQR93NBLhxX/6ARfOnycQ8CNKEnIkQlSOYrVasVmtCKLmflZjqpMkSSk16A5IfmVZ7CYPDg5y+NAhDh44yNjoKHNzcwQCAUDz8ESjUcbGxvB6vXR2tHPwwEGefuYZNmzcSFFxkXHO9vZ23G63scqrqsrRo0dxZjtJz0inoqIC0Ip03jp2jNdfe41wKKwF5GSZkpISysrLgA8m+lXimoXFpJJyByN5vhdJv8btjFFjFY93u8a5Lhd4dOLGG2/8hkIh+np7ea+7G6/Xi6pCZmYGa5uaePSxx1hWt4yioiIi0SiCeKvRmTaGxFysBWObh7vP4/bu2Ph5xBvodzrfvYBFUYdaW1o4cvgwR48cpburK8GQg1vSIhqN4vV68Xm9DA+PEAqFmJ6eZv2G+xGAkydOcOniJd7r7jZ+J4oiE+PjHH7zMKOjY9TU1GCz2xh2u7l29RqdHR2ARqA2u53aujqWLav7cJ3u5hPE/LdxD3e+OqYTQPzn+vwFQYgRP7diD7c5bj6xxF8vGo0yPT2N3+8nGlMtc3Jz2fuFz9O4di3p6emIosjszEzsekLcORZm2H4YFS9xHnf+TfxxvwySJ+n1BDdv3uStY29x4I0D9Pf1JRTX6DfFZDJpK1Xst4qqIkciXL16VUuO6+9DQODY0aNMTU0hyzJmsxmz2UwoFEJVVN7r7mbY7eZiXh52u53RkRF8Pp/BaLIss2r1atY0rqGwqDAp+rxhvMeIMhwOMzs7q2W2xu6BxWolMzNzgc4diUSYmppianKSubk5IpGIFjBMTycvP5/c3FwkScLv8xEIBpGjUQRRxGQykZWVhSAIBAIBxsfHcbvdRKIR47oWq4WioiL8fj+CIJCWlhZ7KO//vARBQJFlJqemUGTNnlLRVm19TAkSDJiammJyYoLZmVlC4RCCIGC3p5Gbm0tuXi52u51wOIx3bk57zoKAKIg4s533pEqWtPJKPT36xPHjHDt6lP6+vlsrgQqOdIfWaSI9HXuaHe+cl7m5OeZmtTRoQRRBUWi+cYPmGzeMc9tsNgoKC8nPz8dqtdLR3m4QeyAQ4GZ/v0GckiQhiiKiKFJcXMyTTz/FypUrDSmUDGNQZ4JAIEB7Wxu9Pb1EohFQVUwmM3X19dTU1CDZJcMOmZubY3BgkObmG7S1teEeHMLn82GxWnC5XKxoaKCxsZGq6mp6e3vp7e1ldnYWs8lERmYmmzdvxmyx0N/Xx+XLl2lrbSXgDxiMPTszy/Hjx8nMyGRpbQ1Lly69RbzzMJ8AQ6EQw2437777LqFQCFQwW8wUFBRw37p1RhKiLMuEQiHGx8a4fv06rc0t9Pf3G00S8vPzqauvZ/WaNdQuqyUYDHLj2jUmJ6cQRQGr1caDW7bgzHYaz+FeYYaPzQTxN3pkZITDh96k+cYNI71BL7Tf8MBGHn/iCVatWoXNbmd2ZoaLFy5w8MBBTp44gSLLCySGoihUVlWxZ++z7Ny1C1mW+cs//3POnTuHZ9qTMAaBWMsXSWLJkiX8zu//HvetW0dmRgbEGOTjQpdqUVmm5733+MPf+33GxsaIRCKoqkpFZSV/8X//EpVbOvbs7CxvvPY6P/nxjxkaHDTyp+JX4p/vf5Xa2lr++H/8CefPnePNQ4fo6uzCYjZTXFJCff1ynNlOjh09xt9897sLxjQ4MMB3/+qvEUWRZ/c+y569e1lSVoaiKgtVu3m4efMm3/mrv+Lc2XP4Y67kqqoqvvLVr6LEeeH8fj9X3n2X7/3N39Ld1YXf718wj4MHDlBVXc1zX3yOktJSfvTDF7ly5QqqqpKdk0NlZQWO9HvPM5U0SRAMBnnr2DHGx8YML46iqtjtdr7+zW+yfcd2lixZgj0tDVEUSUtLY/uOHZSWlVFWXsa+f/+p1qArBofDwY5du3jiySeoq68nKysLVVX53T/4A969fJnLly7T0d7O5MQEUTlKRnoG5RUVrGlcw7r166msqiLNbk+qXqobqJcvXeb7//iPjI6MEpW12Me6det44Wtfo7a21qiX7urs5LWf/4I3Xn+dsbEx5BgTyXEMrxvXfX19/O//+b9Iz0hncmKSaDR6K8Aoxuv1KgLCgnwm/TtFuWW43i3qLYoi169d49VXXuHi+fNEYvd+RUMDTz71FDsf2oXZYkEQBIaHhzl5/Dgv/uCHjI6OGvXf8aqurpoNDNzkRz98kdq6ZQwNDRljkERRk/b3IJJWVBMOh3n38mWmPR7jxthtNnbs3MHmBzdTVV2N2Ww2VgFRFMlyOlm+fDmSKNLa0kpHe3uCByk3J4eysjJycnIMo7isrAyHw0FNTQ0TExP4Y6qRxWrF6cymuLiIouJi7abrBtzHYYJ5xHTh/Hl+vn8/V65c0fRyVeX+DRt48umn+Mx9n8FsNiOKIkODg5x6+20Ov/kmIyMjRKNRREHEke4gv6AAV4kLURSZ8czgdmvp350dHaSnpxMMBhM8KgJaxL1+eT2PPf44w+5hWlpaCAQ0G8CZnc19992HzW5j1erVOLOzIaaHJ05FNeq329raOHzoTU6eOInP5wdVpX55PbsfeYSt27YZ7mqfz8fZ02d4ad8+ent7jedntVrJyclhSVkZNpsNn8+Le8jN6Ogog4OD+Hy+mPcqFsz86E9g0fGxmEDXSWVZxufz0dfbZxClKIqkp6ez6+GHKa+owBLL4pz/+7S0NGpqa9mwcSOjIyMEg1p0WJZlxsfHCYcjC66bm5tLbk6O4Vq83YpnGMJJkAL62VtbWjn4xgEjQAWwctUqPvfoozywaRPpGRnG6nj92nXePnGS/v5+QzKWlZexavVqVjQ0UFLiQhQlPB4PPT3vce3qNa5dvcqMx3NbxrVYLDQ0NGC3p3Hj+nX6+noNJsjLy+PpPc+Qnp5OYWEhebm5Wtc/IVFi6KnrI8PDHDtylBMnjuN2DyFJJlwuF7seeoit27dRUlpi2FBdnZ2cOX2aluYWw2tVUFjAihUrWLV69S0m8Hq5eXOA5hs3uHLlCtPT06iKanQav5dzsZJiE0SjUWZmZvB4PIQjEY0JYqnSdfX1htsOEo0h/f9Wi4U1jWs4dvQow7E8n2g0ysDAAMFgYIG7zdjgg0S/dLxrLlk+aUEQUBWF8fFx9r/8Mm+fPMnY6CiW2Er4+S98gQe3PEheXh6qqlW4zc3N8e7lyzQ3Nxvjys7OZueuXTweU+/i4fF4uHTxIn/3t9+jq6uLcCi0QJc3mUwUFhXhSE8nHA5htdmMuWZkaHGCrKwsY96R6emYGpXITOFwmLePn+DwoUN0d3VjNpvJysriod0P8/Ajj1BZWWlIXUVROH/2HC3NzYZXz2w2c/+GDTyzZw/r778/gbhDoRAtLS386IcvcurkSS0wqty7xK8jKeqQoiiEQyFNV4ytwGaTifT09A8UohclCafTafQlij/n/GJ7SAy6xD+ExTC4JEkiEAjw0k/38eahQ4yOjgLgzM7mG9/6Fjt37cKZ7TSkH0BHezv9/X34/X6jdPTh3bt59PHHqauvTwiyqapKZmYmGzZuxG6389+//W2GBofuOB5d6qpx9yUa80DpkfH5NpDOnMFgkLeOHuPvv/c9JicnEQSBzMxMtmzbygtf+xq5ubkJ8Y+52Tna29sZGBjQxqwo1NTW8uzevdy3bp2hXumLkNlsZs2aNRT9lz+kp7tbi9zLimHT3KtIChOIoojFasVsNmtRVkUhEokwNzeHz+cjOzvbMBZvB1mWmZ6eNirO4s95uxXdyJGPW/HjH0iyjGFBEJibm+Pa1Wu0trYyMz2NqqrU1NTwxFNP8vAju0nPSDckj07Y/f39eDwzBgPbbDYe3LolIXI9n5GtViurVq9m+YoVzM3O4fF4Fg4o9luTZJqn5nBXt6Ousvb19vKD73/fOLfL5WLbjh18/RtfN2wAHYqiMDg0iMfjMVQji9XK7s8+QklJicHI8QuP/llmVhbbdmzH7/czODSkPY8Pe/M/QXxsnUEXk1lZWTizs7HEDEMAr9dLe1sbXq/XiCPEh9P1v3A4zNUrV5mdnU0IqC1ZsgSbzZ6QMhG/UhmeiRjxxRfMxBeTfJy5aaqeh7HRUSKxmubC4iLuW7+enJwcg7njiW9qYpJAzIVoMpkoKiqipKTECGLFjz+e6dPT06msrCQzK+t9Bmb8k/jRXeahKAp+v5/h4WHjHhYWFdKwsgFXSckC20pRFKYnJwkGAwYzWywWli1bRmZm5oI5xP9ZLBbq65dr89A9VR/gfn9a+FiSQL9xoijicDiorKxgdHjYWNF9Xi9H3jxMcbGLZXXLNEkx7/c+n4/Ozk7OnTnDTKwvERBr0ZiPxWJecN3JiUlGRoYZj3mHZFnGZrXizM6muLjY8A6pcdf5qDCbzdjsdiRRZHZ2lkgkwuzMLDf7+1m9evWC+YCmG+vxAEmSyMzKwmqz3dYumo+MjEysMdfk3bHQyXDHI2PPyGazkeV0Mjkxoc1jdg730BAzMzOkpaUtUCeDoVAsioyx6mdmZBjPcf4Y9b3pBEEgMytzwfO+V5G0OIHFYmFtUxMdbW0aMQOBYJCjR45QWVWF2WyidMkS0mJxAlmW8Xm9dHZ18ebBgzQ3NyfECRRFYXJqips3b5LmcJCVlYUsywy7h7U4weVLdLS3MzF+K05QUVnBmsbGhDiBoYZ9BEZQFAW73U5lVRUlJSW8c+oU09PTdHV28rN9+1i9eg2uEpeWrRnnSjWZTUYZo6IoBINBozPG+xG3z+cjHAu+3e1+fxjoBFxQWMiGjRs5evgwU1NTdHd1cejAQZY3NLBhwwYtyhzn+zebzYZvX1/wQuGw0S1w/nxUbsUrvF4v0WjknokK3w1JixPYbDa279jBkTcP8957PYBm8AYCAf7xH/6Bjo52HntcjxjbEiLGb588mXBDdQnx6iuv0NHebkSMo9Eof/kXf8GF8+cNvVYniBFG6O7u5uSJkywpK+N3fu93Wbd+PZkxY/Gj1tZKkkRpaSm/9Z9/m/e6u/HEivnb2zv4++99j//wW/+JEpe2s47OaE6nE5tNS7+ORCIMDgwY3TbMZnOCEQ23VBlFUejt7dXcpEmGLMvk5eXxwle/ysjwMJcvX2bG42FgYIC/+c53qa2poXTJEtBLXQUBp9OJxWJOkHADAwNUVlVhs9lu6/LWvYVdnV3Mzc7FJnhv2wQfmwnidcnCwkIe2v0wPp+P1tZWREEAUSQcCnP29BlaW1pxOBzY0+z4vHrukHajxNgqBImpvb09Pfzg+//Eaz//ORarlY72DgJ+v9GmMT5zUzdOBwcG+LP/86f8x9/+LTZv3kxuXp5RS/BhEY1GiYTDFBQW8uzn9/LySz+jva2NYCDAW8eO0bByJdt37qCoqMi4RnllpVH7LIoigUCAk8ePk52dre27oCjI8wgo4Pdz48YNujs78Pl8SV1BdZtAVRUyMtL5jW98Hf93fJw/d55IJMLN/n5e/OGLfP65Lxj7QoiiSElJCdnZ2UiSRCQSIRwKceD1N6iqrjZcwnrwLf45TExMcOL4ca20U+8flbTZJB9JkwT6A9+6bRuzM7ME/H76+vqMm6NHEAEkk4loLJiT4FkRBBoaGli5aiUgcOzIEaanpxl2uxkbHcVkNhMOhQwGsdvt5OXlYYtlkfpj28MqisLg4CCvvrIfp9PJlq1bbxXzfxTiihWobN2+naGhIaampxkd0VK/97/yMs5sJ9u2bzeSzZYuXUppaSk2m82IgB89coTMzExMkkRFRYWWTR0jmrm5OW5cv86Pfvgiw+5hw55IJrR4h0okEqF22TK2btvOzMwMnR2dhEIhjh87ZkTjdYbOzMqiqrqa5uYW3IODIAg037jBoQMHMEkSKxoaErxz4XCY97q7eeXlV+jv6yMcDmsS4B4OlEESU6n1B1pWVsb2HduRZZmjR44Y9QQQl98Sp/trabYCosnE8hUr2P3II0Y9QVFhIZcuXaKttZWJiYkEF2p1dTWrG9ewtKYGm83GsHvYqLedmZlBkiSuX7vG1StXqaurx1XiSsh1+RATM9IPSktL2bJ1K2OjYxw8cABZlmlpbuH4W8cpKChk/f3rURSF3NxcVjQ00NzcTEtzM6Io0tvTy+E3D+P1+li1ehU52TkIooDf76e/v59LFy5y5vRpIuHIovY5khUFh8PB5i0PMj4+xvjYOB6Ph6GhIY4eOUx2jhbUs1gsmEwm1q5t0nq+Dg6iKAoej4cTbx0nGAzS399PXn4+FrOZYDDE6MgIV69e4cjhIwkpE/c6FqWoZvmKFWRmZZGRkc7BAwcZHxtjNlZZpksAVVUxmUykpaXhdDopKi7m6T3PsGHDrcqyFQ0NHDp4kJ/884+ZmJgwxHpBTO168umnKS8vB7RI6NEjR/jZvpc4e+YMoigSDATobG+no6OdYldxgov1roiPahv/aEy8prGRyclJWltb6e7qQlVVzp05Q25uLpVVleTl5SEIAmubmhgcGMDtdjM7MwPAjevX6e/r4+2TJ6msrESSJCYmxunr68M95DY8OFE5akiD2/r9EeY5h+42n1tZnoIgGCphbW0tmx98kP6+Po6/dRxVVblw/gK5uXlUVVXRsHIlAKsb19DV1UVrSwsjIyNIkkRfXx/Dw8OcfucdampqSUtLY3Z2lr7eXgYGBpBlGbvNTjgSXhSplmwkvQ2jzv0lJSU8/8ILbNu+nWNHjnL27Fk62tsZHR01ehEVFBayYsUKNj6wkUc+9zmjeESORlHRvBN1dXVGuxNdpdm5cyc7du6ivLzciD1YLBa279hBMBDk8uVLBGMdKoaGhrjZfxP44F6VRMK7xTSyLGtesLVNfPFLX+LP/vRPtS2qpqc5e+YMxcVFvPC1ryHLMktrlrJ95w7cbjeHDh40PDQ+n09rR9/amjAmrZbZTumSUkZHRpmamjLcjQsHeGucgiAg6v9PnERMFYmLS8yL3K5taiIQCHDu3Dljd6EL58+T5XRSv3w5giCQlZXF9h078Pl8/MPf/Z1h92hlnn309/XHbtOte2uxWqlZVsvgwICWQ/RR1dBPCEnPbY0PAAkIlJSW8vSze/ijb3+br/36r2v+aFGkorKSr3z1Bf7bH3+bzz32mMYAaM9XjBXHALiH3Hhiman6Sr60poaCwgLjenqDX4vFQkFhAVVVVYix470+H3Nzc8Yq+H4PQ9dtQW8FqRIOae/1QpXc3Fw2bNzI7s9+FofDgSzL9Pf18cbrr3Pq7beNQFldXR2/8c1v8PwLX6GoSJNu8WkGeoqJnh37x//jT3hg06ZbFV2KQijWVjJugJoxGpcvJSuxIOS8ecRfS5blhAbGerVefX093/rN3zQ2UfdMT3PxwgV+8P3vMzc3h6IouEpcPP7kE/zXP/ojqqurjfstcKvISJeeJaWlPP/CC+z9/F5cLpeRhRvfIeRew+J2oBNFBFEgOzsbm81Gbn6+5qqMuVQL8gsodrm05lDzXIZGDpG6MC9eimOS+O9upSPEEbqqQlwm452YQP9c15cLCwsJ+P1YbTbKyssTjHjRIlJS4uLXvvxlamtrmZubA1QcDoeWgx9Lf7bZ7VRVVvLMnj0sq6ujo6ODm/39TE5okViL2UJuXh4VlZWsXLmSdfevp6ioiIKCAiYmJjGbTWRn5xgSEsBqs1FdvZTnnnuOOe8cAgKFRUWkZ2QkRMztNhs1y5bxxS99Ca/PiyAIFLtcRjKjflxefj4P796NSZKYnvagqgppaWnkFxQYx1ksWgXczocfonwxaqoAAAfMSURBVKS0hNaWVqMroM/nQxQ1d+qSsnJWrFhB49pGRFEkHA6zYeNGBEHAnmansKjorukznxYWtwOdKCBHNfEpSRIm8636UinGIPHpE7cj7KysTOyxFiigEWtPTw8T4+OG/q1/7vV6GRkZYXx83FAl0hxa014dd2IEfcW02+00NTWxrHYZiqK3XElLiPaqqorNbmf1mtUUFhbc2mQQLbXAYrEY6ojVZmNpzAe/ctUq3ENDTE9NEQyFMJst5ORkU7pkCaWlpZoxunw5S5aUEY1qnbfNFgvpGRnGdS0WC2VlZXzu0UeRFU0iWC2WhExd0FSSiooKMh57DEXRJILVaiUtLS1BWuvne/SxxwgGQyhqrB+sIBodA0FTTYuKiigqKmJZXR2Dg4NMTEwQ8PsRYh0AS0pKKSktITMzk1AoxLYdOwiHwgiigCSK5OXl/f9bY3wnxBOc7mfWU6BlWSYUDBGO7VIz/3j9taCggJzcXMxms9GK8eKFC1RUVpCdk2P447WObC1cunCR8bExQ/XJzy+gqLh4wflvB11lys3NJScn567H6Tq+q6Tktt/FX0cvMa2urqa6uvqO51UUBafTuSCZLf6eiKJWmJPmSLvtMTr0VBaj6P4Oxxn3ubDwtvOcPz5RFCkpLaWktPSO89AXE5fLddfz3StY3A50sowgiEQiEd7r7qb5xg1CwSCKqjIxOUlvbw+DA4MJXakRBCNUr6oqhUVFVFZVUlBQwODgIJIk0dbays/2vcTszCzbd2zHarPR3tZmdKWGWwRTVV1FbW3thzKKb9eV+nbEEy/F4j+fn/mq5+Ybx+ktV2K6tCEd4wKA838fzwi6LfBBxvd+x91pzvp44o/RbSJVURbYH/Hn1x0Y822Ae622WIegLoIzVyeMSCRC841mXnn5Za5dvcroHfYnWNu0ll97/nljfwJI3J+gubmZn+17iX/7l38xbrS+P0Gaw4HJZCIUDBr7E0iShCzLLKtbxq9//evs3r0bc2wL2Q+6GsU/2KQef4fmWx/2XB/0eh92Hh8Yccbw/EVg/vXvVQmgI/ltGGOVRJ5pD+++e5l9//5TWlpamInbqUZVFKKqyozHQ8DvZ2pykuHhEZ7/yvM0NDSQlpaGEpcGUVFRwdZtWxkaHOTsmTOaahUOEw6Hja1h47eMFQSBvPx8nt6zh7VNTcYGHR+m2uzDPrgPfHz8Ye9jpCfjeotGgPGxlPdRMe91JL0No4rWk6etrZV9//5TTr/zjrG9kpFlaTIZmYiRSITR0VHGxsZwOrOwWCysaWw0VklBEEhPT2flypXs2fssVquV69euMTU9jRwXiNHPnZ6eztKlS9m8ZQvbtm+nOGYP/DI8jBQ+HSSVCXTDadjt5szp0xx/6y1DR7TZbDidTnLz8nA4HHi9XsbGRvFMa5VLiqJw9MgRSpcsobKyEmd2dkJSVm5eHlu2biUnJ4eDBw/SfofdK8vLK4zdK/VMTkgxQQp3xqJ0pb5+/TrvvH3K0P1VVaW8vJyHH9HqbDMyMnAPDfH6L17j4IEDuN1uzGYzM54Zrl25wvL6erZs25awvZKqaiWI69avZ21TE709vXS0tzM4NEQkHCYnN+e2+xjfyRhMIQUdSSuq0XVur9dLf18//f39hsehoqKCp/Y8wxNPPmn4s9PS0vjir32JnNxcvvPXf6352hWV/r5+Ojo62LJtW8I1dEJWZBlJFCmvKKfYVWxEQSVJwmI2Y4ptCq4zT4oBUng/JD13aMbj0YJBwaBhB6xuXENDQwNOp9MgUEmSKCwsZPmK5dTX19PS0kJUiTA9Pc342PiCKLJ+fmKfmUymBS68272mkML7IWm5Q7phGgwGNT09rnqquLjYyE2JP14ymcjMyqKouAgpdmwoHCYQK+6+k0/7dn/6d/GvKaTwQZDUegKI5fVIsWBX7LuAP2AkpenH6eqKHJUJBm4lielSAu6e9ZlSdVJIFpKeRZqRkYHD4Uhwiba3t3Oz/6ZRFKNLCa3V4hhtbW1GDMERK6q/U0eDFFJINpJWXql7cLJzcliyZAkFhYWMDA8jCALXrl4lLy+PrKws7t+4AdCKYE4eP8FL+/YxPTWlxQ6iUVwuF+WxLZg+6ObbKaTwcZDcYFmMaJfV1dP0mSYOvPaGVuEVDHL+3DmmpqY4duwomRmZjI2P09XZSW9Pj+FF0n5bx+o1a4CUFEjhk0HSvUOoKtVLq9m0aTPtre0MDNw0Np2eu6ztKeBwOPB4PASCQW2nyliy1dqmtdy37j5KS0tR4/Y4TiGFxURymSCWv5OXl8dn1t2H2+3m4OuvM+h2Ew6HiUQiTE5OMjU5aXiH9CL7svJynnjqKdY2NWG1WD90rk8KKXxUJD2LND5rcG5ujn/98U94/bXXuDkwQDQa1UoDY8eYYk1ei1wuvvmtb/LApk2GKzXFACl8Uli0VGr91ev10tXZyaWLl7hy5QpDg4OEwyEcDgdl5eU0rl3Lho0bcblcWK3WhNLJFFL4JLAoTKBDL8AIBoNMTU8zNTVFINYgy2Qy4UhPJycnh7y8PCQxVgQvpAziFD5ZLDoT3K5wJL4qK/69KIiL2ngqhRRuh0XVO4RYqWR8t2Id89+LYooBUvh0sKiS4E74ZSi5S+FXB5+KBZpigBTuJaTcMCn8yiPFBCn8yuP/AdV6/V0uo+hzAAAAAElFTkSuQmCC;" vertex="1" parent="1">
          <mxGeometry x="467" y="159" width="122.15" height="50" as="geometry" />
        </mxCell>
        <mxCell id="Cdtj5ABlr2NyAngbiMP4-14" style="edgeStyle=orthogonalEdgeStyle;rounded=0;orthogonalLoop=1;jettySize=auto;html=1;" edge="1" parent="1" source="Cdtj5ABlr2NyAngbiMP4-12" target="Cdtj5ABlr2NyAngbiMP4-8">
          <mxGeometry relative="1" as="geometry" />
        </mxCell>
        <mxCell id="Cdtj5ABlr2NyAngbiMP4-12" value="Producer" style="text;html=1;strokeColor=none;fillColor=none;align=center;verticalAlign=middle;whiteSpace=wrap;rounded=0;" vertex="1" parent="1">
          <mxGeometry x="350" y="169" width="60" height="30" as="geometry" />
        </mxCell>
        <mxCell id="Cdtj5ABlr2NyAngbiMP4-18" style="edgeStyle=orthogonalEdgeStyle;rounded=0;orthogonalLoop=1;jettySize=auto;html=1;" edge="1" parent="1" source="Cdtj5ABlr2NyAngbiMP4-15" target="Cdtj5ABlr2NyAngbiMP4-26">
          <mxGeometry relative="1" as="geometry">
            <mxPoint x="780" y="72.5" as="targetPoint" />
            <Array as="points">
              <mxPoint x="680" y="73" />
            </Array>
          </mxGeometry>
        </mxCell>
        <mxCell id="Cdtj5ABlr2NyAngbiMP4-15" value="Consumer" style="text;html=1;strokeColor=none;fillColor=none;align=center;verticalAlign=middle;whiteSpace=wrap;rounded=0;" vertex="1" parent="1">
          <mxGeometry x="650" y="169" width="60" height="30" as="geometry" />
        </mxCell>
        <mxCell id="Cdtj5ABlr2NyAngbiMP4-29" style="edgeStyle=orthogonalEdgeStyle;rounded=0;orthogonalLoop=1;jettySize=auto;html=1;" edge="1" parent="1" source="Cdtj5ABlr2NyAngbiMP4-26" target="Cdtj5ABlr2NyAngbiMP4-28">
          <mxGeometry relative="1" as="geometry" />
        </mxCell>
        <mxCell id="Cdtj5ABlr2NyAngbiMP4-26" value="Amazon S3" style="sketch=0;outlineConnect=0;fontColor=#232F3E;gradientColor=none;strokeColor=#ffffff;fillColor=#232F3E;dashed=0;verticalLabelPosition=middle;verticalAlign=bottom;align=center;html=1;whiteSpace=wrap;fontSize=10;fontStyle=1;spacing=3;shape=mxgraph.aws4.productIcon;prIcon=mxgraph.aws4.s3;" vertex="1" parent="1">
          <mxGeometry x="793" y="40" width="60" height="80" as="geometry" />
        </mxCell>
        <mxCell id="Cdtj5ABlr2NyAngbiMP4-30" style="edgeStyle=orthogonalEdgeStyle;rounded=0;orthogonalLoop=1;jettySize=auto;html=1;" edge="1" parent="1" source="Cdtj5ABlr2NyAngbiMP4-28">
          <mxGeometry relative="1" as="geometry">
            <mxPoint x="823.5" y="260" as="targetPoint" />
          </mxGeometry>
        </mxCell>
        <mxCell id="Cdtj5ABlr2NyAngbiMP4-28" value="" style="sketch=0;outlineConnect=0;fontColor=#232F3E;gradientColor=none;fillColor=#4D27AA;strokeColor=none;dashed=0;verticalLabelPosition=bottom;verticalAlign=top;align=center;html=1;fontSize=12;fontStyle=0;aspect=fixed;pointerEvents=1;shape=mxgraph.aws4.glue_crawlers;" vertex="1" parent="1">
          <mxGeometry x="793" y="159" width="61" height="61" as="geometry" />
        </mxCell>
        <mxCell id="Cdtj5ABlr2NyAngbiMP4-34" style="edgeStyle=orthogonalEdgeStyle;rounded=0;orthogonalLoop=1;jettySize=auto;html=1;" edge="1" parent="1" source="Cdtj5ABlr2NyAngbiMP4-31" target="Cdtj5ABlr2NyAngbiMP4-33">
          <mxGeometry relative="1" as="geometry" />
        </mxCell>
        <mxCell id="Cdtj5ABlr2NyAngbiMP4-31" value="AWS Glue" style="sketch=0;outlineConnect=0;fontColor=#232F3E;gradientColor=none;strokeColor=#ffffff;fillColor=#232F3E;dashed=0;verticalLabelPosition=middle;verticalAlign=bottom;align=center;html=1;whiteSpace=wrap;fontSize=10;fontStyle=1;spacing=3;shape=mxgraph.aws4.productIcon;prIcon=mxgraph.aws4.glue;" vertex="1" parent="1">
          <mxGeometry x="788.5" y="260" width="70" height="90" as="geometry" />
        </mxCell>
        <mxCell id="Cdtj5ABlr2NyAngbiMP4-33" value="Amazon Athena" style="sketch=0;outlineConnect=0;fontColor=#232F3E;gradientColor=none;strokeColor=#ffffff;fillColor=#232F3E;dashed=0;verticalLabelPosition=middle;verticalAlign=bottom;align=center;html=1;whiteSpace=wrap;fontSize=10;fontStyle=1;spacing=3;shape=mxgraph.aws4.productIcon;prIcon=mxgraph.aws4.athena;" vertex="1" parent="1">
          <mxGeometry x="788.25" y="406" width="69.5" height="102" as="geometry" />
        </mxCell>
        <mxCell id="Cdtj5ABlr2NyAngbiMP4-37" value="Amazon EC2" style="sketch=0;outlineConnect=0;fontColor=#232F3E;gradientColor=none;strokeColor=#ffffff;fillColor=#232F3E;dashed=0;verticalLabelPosition=middle;verticalAlign=bottom;align=center;html=1;whiteSpace=wrap;fontSize=10;fontStyle=1;spacing=3;shape=mxgraph.aws4.productIcon;prIcon=mxgraph.aws4.ec2;" vertex="1" parent="1">
          <mxGeometry x="520" y="199" width="41.93" height="71" as="geometry" />
        </mxCell>
        <mxCell id="Cdtj5ABlr2NyAngbiMP4-39" value="&lt;h1 style=&quot;margin: 0px; padding: 0px; border: 0px; background: rgb(255, 255, 255); word-break: break-word; font-family: &amp;quot;YouTube Sans&amp;quot;, Roboto, sans-serif; font-size: 2rem; line-height: 2.8rem; overflow: hidden; max-height: 5.6rem; -webkit-line-clamp: 2; display: -webkit-box; -webkit-box-orient: vertical; text-overflow: ellipsis; color: rgb(15, 15, 15); text-align: start;&quot; class=&quot;style-scope ytd-watch-metadata&quot;&gt;Stock Market Real-Time Data Analysis Using Kafka&lt;/h1&gt;" style="text;strokeColor=none;align=center;fillColor=none;html=1;verticalAlign=middle;whiteSpace=wrap;rounded=0;" vertex="1" parent="1">
          <mxGeometry x="160" y="-40" width="590" height="30" as="geometry" />
        </mxCell>
        <mxCell id="Cdtj5ABlr2NyAngbiMP4-40" value="1" style="ellipse;whiteSpace=wrap;html=1;aspect=fixed;" vertex="1" parent="1">
          <mxGeometry x="100" y="460" width="30" height="30" as="geometry" />
        </mxCell>
        <mxCell id="Cdtj5ABlr2NyAngbiMP4-41" value="2" style="ellipse;whiteSpace=wrap;html=1;aspect=fixed;" vertex="1" parent="1">
          <mxGeometry x="110" y="130" width="30" height="30" as="geometry" />
        </mxCell>
        <mxCell id="Cdtj5ABlr2NyAngbiMP4-42" value="3" style="ellipse;whiteSpace=wrap;html=1;aspect=fixed;" vertex="1" parent="1">
          <mxGeometry x="580" y="220" width="30" height="30" as="geometry" />
        </mxCell>
        <mxCell id="Cdtj5ABlr2NyAngbiMP4-43" value="4" style="ellipse;whiteSpace=wrap;html=1;aspect=fixed;" vertex="1" parent="1">
          <mxGeometry x="867" y="80" width="30" height="30" as="geometry" />
        </mxCell>
        <mxCell id="Cdtj5ABlr2NyAngbiMP4-44" value="5" style="ellipse;whiteSpace=wrap;html=1;aspect=fixed;" vertex="1" parent="1">
          <mxGeometry x="867" y="174.5" width="30" height="30" as="geometry" />
        </mxCell>
        <mxCell id="Cdtj5ABlr2NyAngbiMP4-45" value="6" style="ellipse;whiteSpace=wrap;html=1;aspect=fixed;" vertex="1" parent="1">
          <mxGeometry x="867" y="290" width="30" height="30" as="geometry" />
        </mxCell>
        <mxCell id="Cdtj5ABlr2NyAngbiMP4-46" value="7" style="ellipse;whiteSpace=wrap;html=1;aspect=fixed;" vertex="1" parent="1">
          <mxGeometry x="867" y="430" width="30" height="30" as="geometry" />
        </mxCell>
        <mxCell id="Cdtj5ABlr2NyAngbiMP4-50" value="&lt;ol style=&quot;font-size: 14px;&quot;&gt;&lt;li style=&quot;border-color: var(--border-color);&quot;&gt;&lt;font face=&quot;Comic Sans MS&quot; style=&quot;border-color: var(--border-color); font-size: 14px;&quot;&gt;&lt;b&gt;Real stock market data Source ( For this project data has been stored in a csv file)&lt;/b&gt;&lt;/font&gt;&lt;/li&gt;&lt;li&gt;&lt;font style=&quot;font-size: 14px;&quot; face=&quot;Comic Sans MS&quot;&gt;&lt;b&gt;Scrap real-time stock market data via Python.&lt;/b&gt;&lt;/font&gt;&lt;/li&gt;&lt;li&gt;&lt;font style=&quot;font-size: 14px;&quot; face=&quot;Comic Sans MS&quot;&gt;&lt;b&gt;Create a Kafka consumer and producer in AWS EC2 Instance and use python sdk and boto3 library to connect with Kafka producer and consumer and S3 bucket.&lt;/b&gt;&lt;/font&gt;&lt;/li&gt;&lt;li&gt;&lt;font style=&quot;font-size: 14px;&quot; face=&quot;Comic Sans MS&quot;&gt;&lt;b&gt;Create an AWS S3 bucket to store real-time consumed data in various files.&lt;/b&gt;&lt;/font&gt;&lt;/li&gt;&lt;li&gt;&lt;font style=&quot;font-size: 14px;&quot; face=&quot;Comic Sans MS&quot;&gt;&lt;b&gt;Create an AWS crawler to&amp;nbsp;access your consumed s3 bucket data store, extracts metadata, and creates table definitions in the AWS Glue Data Catalog&lt;font style=&quot;font-size: 14px;&quot; color=&quot;#4d5156&quot;&gt;&lt;span style=&quot;background-color: rgb(255, 255, 255);&quot;&gt;.&lt;/span&gt;&lt;/font&gt;&lt;/b&gt;&lt;/font&gt;&lt;/li&gt;&lt;li&gt;&lt;font face=&quot;Comic Sans MS&quot;&gt;&lt;b&gt;AWS Glue Data Catalog is populated with tables using crawler as seen in last step. The tables stores real time stock market data getting stored in S3 Bucket.&lt;/b&gt;&lt;/font&gt;&lt;/li&gt;&lt;li&gt;&lt;font face=&quot;Comic Sans MS&quot;&gt;&lt;b&gt;Analyse Real Time stock market data via AWS Athena.&lt;/b&gt;&lt;/font&gt;&lt;/li&gt;&lt;/ol&gt;" style="rounded=0;whiteSpace=wrap;html=1;align=left;" vertex="1" parent="1">
          <mxGeometry x="940" y="40" width="640" height="210" as="geometry" />
        </mxCell>
        <mxCell id="Cdtj5ABlr2NyAngbiMP4-53" value="Crawler" style="text;html=1;strokeColor=none;fillColor=none;align=center;verticalAlign=middle;whiteSpace=wrap;rounded=0;" vertex="1" parent="1">
          <mxGeometry x="780" y="204.5" width="40" height="11" as="geometry" />
        </mxCell>
        <mxCell id="Cdtj5ABlr2NyAngbiMP4-54" value="&lt;div&gt;&lt;b&gt;Tech Stacks Used in this project:&lt;/b&gt;&lt;/div&gt;&lt;div&gt;&lt;ol&gt;&lt;li&gt;&lt;b&gt;Python&lt;/b&gt;&lt;/li&gt;&lt;li&gt;&lt;b&gt;Apache Kafka&lt;/b&gt;&lt;/li&gt;&lt;li&gt;&lt;b&gt;Amazon EC2 Instance&lt;/b&gt;&lt;/li&gt;&lt;li&gt;&lt;b&gt;AWS S3&lt;/b&gt;&lt;/li&gt;&lt;li&gt;&lt;b&gt;AWS Crawler&lt;/b&gt;&lt;/li&gt;&lt;li&gt;&lt;b&gt;AWS Glue&lt;/b&gt;&lt;/li&gt;&lt;li&gt;&lt;b&gt;AWS Athena&lt;/b&gt;&lt;/li&gt;&lt;/ol&gt;&lt;/div&gt;&lt;b&gt;&lt;br&gt;&lt;/b&gt;" style="rounded=0;whiteSpace=wrap;html=1;align=left;" vertex="1" parent="1">
          <mxGeometry x="940" y="290" width="260" height="180" as="geometry" />
        </mxCell>
      </root>
    </mxGraphModel>
  </diagram>
</mxfile>
